<svg id="Capa_1" enable-background="new 0 0 512 512" height="512" viewBox="0 0 512 512" width="512" xmlns="http://www.w3.org/2000/svg"><g><path d="m480.5 504.5h-449c-13.255 0-24-10.745-24-24 0-3.314 2.686-6 6-6h485c3.314 0 6 2.686 6 6 0 13.255-10.745 24-24 24z" fill="#cbc4cc"/><path d="m498.5 474.5h-30c3.314 0 6 2.686 6 6 0 13.255-10.745 24-24 24h30c13.255 0 24-10.745 24-24 0-3.314-2.686-6-6-6z" fill="#b5adb6"/><path d="m140.5 160.5h148v314h-148z" fill="#a8d3d8"/><path d="m258.5 160.5h30v314h-30z" fill="#8ebac5"/><g fill="#dcf5f8"><path d="m244.5 224.5h-104v-30h104c1.105 0 2 .895 2 2v26c0 1.105-.895 2-2 2z"/><path d="m244.5 284.5h-104v-30h104c1.105 0 2 .895 2 2v26c0 1.105-.895 2-2 2z"/><path d="m244.5 344.5h-104v-30h104c1.105 0 2 .895 2 2v26c0 1.105-.895 2-2 2z"/><path d="m244.5 404.5h-104v-30h104c1.105 0 2 .895 2 2v26c0 1.105-.895 2-2 2z"/></g><path d="m222.5 130.5h-82v-54l82 20.431z" fill="#a8d3d8"/><path d="m192.5 89.456v41.044h30v-33.569z" fill="#8ebac5"/><path d="m140.5 130.5h110v30h-110z" fill="#918291"/><path d="m220.5 130.5h30v30h-30z" fill="#7a6d79"/><path d="m288.5 306.5h60v168h-60z" fill="#dd7f66"/><path d="m318.5 306.5h30v168h-30z" fill="#d6694b"/><path d="m348.5 366.5h-28c-1.105 0-2-.895-2-2v-26c0-1.105.895-2 2-2h28z" fill="#dcf5f8"/><path d="m348.5 426.5h-28c-1.105 0-2-.895-2-2v-26c0-1.105.895-2 2-2h28z" fill="#dcf5f8"/><path d="m80.5 306.5h60v168h-60z" fill="#dd7f66"/><path d="m110.5 306.5h30v168h-30z" fill="#d6694b"/><path d="m80.5 366.5h28c1.105 0 2-.895 2-2v-26c0-1.105-.895-2-2-2h-28z" fill="#dcf5f8"/><path d="m80.5 426.5h28c1.105 0 2-.895 2-2v-26c0-1.105-.895-2-2-2h-28z" fill="#dcf5f8"/><path d="m258.5 474.5h-88v-36.022c0-1.092.885-1.978 1.978-1.978h84.045c1.092 0 1.978.885 1.978 1.978v36.022z" fill="#685e68"/><path d="m415.337 154.897c-.557 3.948-1.887 9.603-3.075 14.198-1.11 4.292-4.973 7.294-9.406 7.294h-13.576c-4.433 0-8.297-3.002-9.406-7.294-1.188-4.595-2.518-10.25-3.075-14.198-.415-2.942-2.182-5.517-4.756-7l-12.543-7.224c-2.572-1.481-5.682-1.722-8.435-.612-3.713 1.498-9.311 3.182-13.905 4.456-4.267 1.183-8.792-.656-11.01-4.488l-6.779-11.712c-2.22-3.836-1.55-8.683 1.617-11.783 3.399-3.327 7.649-7.31 10.801-9.766 2.342-1.825 3.692-4.64 3.692-7.609v-14.429c0-2.969-1.35-5.784-3.692-7.609-3.152-2.456-7.402-6.438-10.801-9.766-3.167-3.1-3.837-7.947-1.617-11.783l6.779-11.712c2.218-3.832 6.744-5.671 11.01-4.488 4.594 1.274 10.192 2.958 13.905 4.456 2.752 1.11 5.863.869 8.435-.612l12.543-7.224c2.574-1.483 4.342-4.058 4.756-7 .557-3.948 1.887-9.603 3.075-14.198 1.11-4.292 4.973-7.294 9.406-7.294h13.575c4.433 0 8.297 3.002 9.406 7.294 1.188 4.595 2.518 10.25 3.075 14.198.415 2.942 2.182 5.517 4.756 7l12.543 7.224c2.572 1.481 5.682 1.722 8.435.612 3.713-1.498 9.311-3.182 13.905-4.456 4.267-1.183 8.792.656 11.01 4.488l6.779 11.712c2.22 3.836 1.55 8.683-1.617 11.783-3.399 3.327-7.649 7.31-10.801 9.766-2.342 1.825-3.691 4.64-3.691 7.609v14.43c0 2.969 1.35 5.784 3.691 7.609 3.152 2.456 7.402 6.438 10.801 9.766 3.167 3.1 3.837 7.947 1.617 11.783l-6.779 11.712c-2.218 3.832-6.744 5.671-11.01 4.488-4.594-1.274-10.192-2.958-13.905-4.456-2.752-1.11-5.863-.869-8.435.612l-12.543 7.224c-2.573 1.482-4.34 4.057-4.755 6.999zm14.155-62.952c0-18.414-14.964-33.341-33.424-33.341-18.459 0-33.424 14.927-33.424 33.341s14.964 33.341 33.424 33.341 33.424-14.927 33.424-33.341z" fill="#a8d3d8"/><g><path d="m498.5 467h-142.5v-160.5c0-4.142-3.357-7.5-7.5-7.5h-52.5v-72.026c0-4.142-3.357-7.5-7.5-7.5s-7.5 3.358-7.5 7.5v240.026h-15v-28.522c0-5.226-4.252-9.478-9.478-9.478h-84.045c-5.226 0-9.478 4.251-9.478 9.478v28.522h-15v-55h96.5c5.238 0 9.5-4.262 9.5-9.5v-26c0-5.238-4.262-9.5-9.5-9.5h-96.499v-15h96.5c5.238 0 9.5-4.262 9.5-9.5v-26c0-5.238-4.262-9.5-9.5-9.5h-96.5v-15h96.5c5.238 0 9.5-4.262 9.5-9.5v-26c0-5.238-4.262-9.5-9.5-9.5h-96.5v-15h96.5c5.238 0 9.5-4.262 9.5-9.5v-26c0-5.238-4.262-9.5-9.5-9.5h-96.5v-19h133v23.59c0 4.142 3.357 7.5 7.5 7.5s7.5-3.358 7.5-7.5v-31.09c0-4.142-3.357-7.5-7.5-7.5h-30.5v-22.5c0-4.142-3.357-7.5-7.5-7.5h-20.5v-26.069c0-3.444-2.345-6.445-5.687-7.277l-76.313-19.014v-63.14c0-4.142-3.357-7.5-7.5-7.5s-7.5 3.358-7.5 7.5v291.5h-52.5c-4.143 0-7.5 3.358-7.5 7.5v160.5h-59.5c-7.444 0-13.5 6.056-13.5 13.5 0 17.369 14.131 31.5 31.5 31.5h287c4.143 0 7.5-3.358 7.5-7.5s-3.357-7.5-7.5-7.5h-287c-8.593 0-15.673-6.602-16.433-15h481.865c-.76 8.398-7.84 15-16.433 15h-125.704c-4.143 0-7.5 3.358-7.5 7.5s3.357 7.5 7.5 7.5h125.705c17.369 0 31.5-14.131 31.5-31.5 0-7.444-6.056-13.5-13.5-13.5zm-259.5-85v15h-91v-15zm0-60v15h-91v-15zm0-60v15h-91v-15zm0-60v15h-91v-15zm4-49h-95v-15h95zm-28-30h-67v-36.902l67 16.693zm-127 221h15v15h-15zm0 60h15v15h-15zm0 30h20.5c5.238 0 9.5-4.262 9.5-9.5v-26c0-5.238-4.262-9.5-9.5-9.5h-20.5v-15h20.5c5.238 0 9.5-4.262 9.5-9.5v-26c0-5.238-4.262-9.5-9.5-9.5h-20.5v-15h45v153h-45zm253-15h-15v-15h15zm0-60h-15v-15h15zm-163 108v-23h73v23zm118 0v-153h45v15h-20.5c-5.238 0-9.5 4.262-9.5 9.5v26c0 5.238 4.262 9.5 9.5 9.5h20.5v15h-20.5c-5.238 0-9.5 4.262-9.5 9.5v26c0 5.238 4.262 9.5 9.5 9.5h20.5v33z"/><path d="m396.068 132.786c22.565 0 40.924-18.321 40.924-40.841 0-4.142-3.357-7.5-7.5-7.5s-7.5 3.358-7.5 7.5c0 14.249-11.629 25.841-25.924 25.841s-25.924-11.592-25.924-25.841 11.629-25.842 25.924-25.842c5.327 0 10.442 1.597 14.793 4.617 3.403 2.364 8.077 1.519 10.438-1.883 2.362-3.402 1.519-8.076-1.884-10.438-6.875-4.773-14.948-7.296-23.348-7.296-22.565 0-40.924 18.322-40.924 40.842s18.36 40.841 40.925 40.841z"/><path d="m327.179 100.853c-3.621 2.821-8.219 7.17-11.438 10.322-5.621 5.503-6.798 14.097-2.861 20.9l6.779 11.711c3.926 6.782 11.946 10.056 19.505 7.959 4.356-1.208 10.444-3.009 14.707-4.728.593-.24 1.3-.183 1.886.155l12.543 7.224c.583.335.984.915 1.073 1.548.639 4.527 2.114 10.671 3.24 15.028 1.966 7.605 8.82 12.917 16.668 12.917h13.575c7.847 0 14.701-5.311 16.669-12.917 1.125-4.353 2.6-10.494 3.239-15.028.09-.634.491-1.212 1.073-1.548l12.542-7.224c.587-.337 1.291-.395 1.888-.156 4.264 1.72 10.352 3.52 14.707 4.728 7.56 2.098 15.58-1.177 19.505-7.958l6.778-11.71c3.938-6.802 2.761-15.396-2.861-20.901-3.224-3.155-7.824-7.507-11.438-10.322-.501-.391-.801-1.024-.801-1.693v-14.43c0-.669.3-1.303.801-1.693 3.613-2.815 8.214-7.167 11.438-10.322 5.623-5.503 6.799-14.098 2.861-20.899l-6.778-11.712c-3.925-6.782-11.943-10.054-19.505-7.959-4.355 1.208-10.443 3.008-14.708 4.728-.595.239-1.301.181-1.886-.155l-12.543-7.225c-.583-.335-.984-.914-1.073-1.547-.64-4.534-2.114-10.675-3.24-15.03-1.967-7.605-8.822-12.916-16.669-12.916h-13.575c-7.848 0-14.702 5.312-16.668 12.917-1.126 4.357-2.602 10.501-3.24 15.027-.089.635-.49 1.213-1.072 1.549l-12.545 7.225c-.585.338-1.289.396-1.885.155-4.263-1.719-10.351-3.52-14.707-4.728-7.56-2.097-15.58 1.176-19.505 7.958l-6.779 11.712c-3.937 6.802-2.76 15.396 2.861 20.899 3.22 3.152 7.817 7.501 11.438 10.322.502.391.802 1.024.802 1.694v14.43c-.001.669-.3 1.301-.801 1.693zm9.218-29.648c-2.394-1.865-6.003-5.136-10.164-9.209-.72-.705-.873-1.801-.372-2.666l6.779-11.712c.504-.87 1.533-1.29 2.515-1.018 5.631 1.561 10.285 3.047 13.104 4.184 4.907 1.979 10.368 1.59 14.983-1.068l12.544-7.224c4.622-2.662 7.698-7.201 8.439-12.453.422-2.991 1.455-7.738 2.91-13.368.255-.984 1.136-1.671 2.145-1.671h13.575c1.009 0 1.892.688 2.146 1.67 1.454 5.625 2.487 10.373 2.909 13.37.741 5.25 3.817 9.789 8.44 12.451l12.543 7.224c4.615 2.657 10.075 3.047 14.982 1.068 2.82-1.137 7.475-2.623 13.105-4.185.981-.271 2.011.148 2.515 1.018l6.779 11.713c.5.865.348 1.961-.372 2.665-4.166 4.078-7.776 7.349-10.165 9.21-4.183 3.26-6.581 8.189-6.581 13.525v14.43c0 5.336 2.398 10.266 6.582 13.525 2.388 1.861 5.998 5.131 10.163 9.209.72.705.873 1.801.372 2.667l-6.778 11.711c-.504.87-1.533 1.29-2.515 1.018-5.631-1.561-10.285-3.047-13.104-4.184-4.907-1.979-10.368-1.589-14.983 1.068l-12.544 7.224c-4.622 2.663-7.698 7.202-8.439 12.451v.001c-.422 2.996-1.455 7.744-2.908 13.367-.255.985-1.138 1.672-2.146 1.672h-13.576c-1.009 0-1.891-.687-2.145-1.67-1.455-5.63-2.488-10.378-2.91-13.37-.741-5.25-3.816-9.788-8.439-12.451l-12.544-7.224c-2.67-1.538-5.622-2.316-8.587-2.316-2.16 0-4.328.414-6.396 1.248-2.818 1.137-7.473 2.623-13.104 4.185-.981.27-2.011-.148-2.515-1.019l-6.779-11.71c-.501-.866-.348-1.962.373-2.667 4.16-4.073 7.77-7.344 10.163-9.209 4.184-3.259 6.582-8.189 6.582-13.525v-14.43c0-5.335-2.398-10.265-6.582-13.525z"/></g></g></svg>